<?xml version="1.0" encoding="UTF-8"?>
<svg id="Layer_1" xmlns="http://www.w3.org/2000/svg" version="1.1" viewBox="0 0 657.32 602.64">
  <!-- Generator: Adobe Illustrator 30.3.0, SVG Export Plug-In . SVG Version: 2.1.3 Build 182)  -->
  <defs>
    <style>
      .st0 {
        fill: #2b2521;
      }
    </style>
  </defs>
  <path class="st0" d="M86.62,283.18c-2.57,40.85,1.65,201,160.39,201,44.1,0,86.1-19.47,117.35-51.69C335.7,279.46,405.71,2.81,487.11,3.79c21.63.26,32.01,30.7,31.33,77.68-1.04,71.99-27.59,178.22-75.62,276.93,25.35,88.22,58.58,175.74,140.69,169.35,31.41-2.45,44.12-24.42,58.27-24.25,8.32.1,15.65,10.8,15.54,18.38-.33,22.73-59.22,81.82-148.24,80.75-50.75-.61-107.45-43.11-135.27-133.63-45.75,75.63-132.64,116.01-212.51,115.05C58.97,582.81,0,495.11,0,403.41,0,250.94,43.47,107.58,111.24,15.53,113.79,11.77,125.61-.22,143.92,0c4.16.05,7.45,2.36,7.38,7.67-.04,3.03-.93,6.81-2.66,11.34-20.51,36.89-52.6,114.23-62.02,264.17ZM456.92,77.7c-24.13-.29-35.01,58.38-36.02,128.1-.49,34.1,3.05,76.59,13.24,119.91,32.04-75.09,63.16-247.52,22.78-248.01Z"/>
</svg>